<svg xmlns="http://www.w3.org/2000/svg" width="704" height="606" viewBox="0 0 704 606" font-family="-apple-system,BlinkMacSystemFont,Segoe UI,Helvetica,Arial,sans-serif">
<rect width="704" height="606" rx="10" fill="#0d1117"/>
<text x="24" y="34" fill="#c9d1d9" font-size="20" font-weight="700">Overall pass-rate leaderboard</text>
<text x="24" y="56" fill="#8b949e" font-size="12">S86 coder-fleet sweep · 31 cases/model · gfx1151 · MINT v2 · full final set</text>
<line x1="210.0" y1="78" x2="210.0" y2="556.0" stroke="#21262d" stroke-width="1"/>
<text x="210.0" y="578.0" fill="#8b949e" font-size="11" text-anchor="middle">0%</text>
<line x1="317.5" y1="78" x2="317.5" y2="556.0" stroke="#21262d" stroke-width="1"/>
<text x="317.5" y="578.0" fill="#8b949e" font-size="11" text-anchor="middle">25%</text>
<line x1="425.0" y1="78" x2="425.0" y2="556.0" stroke="#21262d" stroke-width="1"/>
<text x="425.0" y="578.0" fill="#8b949e" font-size="11" text-anchor="middle">50%</text>
<line x1="532.5" y1="78" x2="532.5" y2="556.0" stroke="#21262d" stroke-width="1"/>
<text x="532.5" y="578.0" fill="#8b949e" font-size="11" text-anchor="middle">75%</text>
<line x1="640.0" y1="78" x2="640.0" y2="556.0" stroke="#21262d" stroke-width="1"/>
<text x="640.0" y="578.0" fill="#8b949e" font-size="11" text-anchor="middle">100%</text>
<text x="198" y="100.0" fill="#c9d1d9" font-size="13" text-anchor="end">qwen3-coder:30b</text>
<rect x="210" y="84.0" width="430" height="20" rx="4" fill="#161b22"/>
<rect x="210" y="84.0" width="346.6" height="20" rx="4" fill="#3fb950"/>
<text x="648" y="100.0" fill="#c9d1d9" font-size="12" font-weight="600">81%</text>
<text x="198" y="134.0" fill="#c9d1d9" font-size="13" text-anchor="end">qwen3-coder-next:latest</text>
<rect x="210" y="118.0" width="430" height="20" rx="4" fill="#161b22"/>
<rect x="210" y="118.0" width="346.6" height="20" rx="4" fill="#3fb950"/>
<text x="648" y="134.0" fill="#c9d1d9" font-size="12" font-weight="600">81%</text>
<text x="198" y="168.0" fill="#c9d1d9" font-size="13" text-anchor="end">qwen2.5-coder:14b-instruct</text>
<rect x="210" y="152.0" width="430" height="20" rx="4" fill="#161b22"/>
<rect x="210" y="152.0" width="332.8" height="20" rx="4" fill="#3fb950"/>
<text x="648" y="168.0" fill="#c9d1d9" font-size="12" font-weight="600">77%</text>
<text x="198" y="202.0" fill="#c9d1d9" font-size="13" text-anchor="end">Seed-Coder-8B</text>
<rect x="210" y="186.0" width="430" height="20" rx="4" fill="#161b22"/>
<rect x="210" y="186.0" width="263.6" height="20" rx="4" fill="#58a6ff"/>
<text x="648" y="202.0" fill="#c9d1d9" font-size="12" font-weight="600">61%</text>
<text x="198" y="236.0" fill="#c9d1d9" font-size="13" text-anchor="end">gemma3:12b</text>
<rect x="210" y="220.0" width="430" height="20" rx="4" fill="#161b22"/>
<rect x="210" y="220.0" width="221.9" height="20" rx="4" fill="#58a6ff"/>
<text x="648" y="236.0" fill="#c9d1d9" font-size="12" font-weight="600">52%</text>
<text x="198" y="270.0" fill="#c9d1d9" font-size="13" text-anchor="end">qwen2.5-coder:32b-instruct</text>
<rect x="210" y="254.0" width="430" height="20" rx="4" fill="#161b22"/>
<rect x="210" y="254.0" width="166.4" height="20" rx="4" fill="#58a6ff"/>
<text x="648" y="270.0" fill="#c9d1d9" font-size="12" font-weight="600">39%</text>
<text x="198" y="304.0" fill="#c9d1d9" font-size="13" text-anchor="end">codestral:latest</text>
<rect x="210" y="288.0" width="430" height="20" rx="4" fill="#161b22"/>
<rect x="210" y="288.0" width="152.7" height="20" rx="4" fill="#58a6ff"/>
<text x="648" y="304.0" fill="#c9d1d9" font-size="12" font-weight="600">36%</text>
<text x="198" y="338.0" fill="#c9d1d9" font-size="13" text-anchor="end">devstral:24b</text>
<rect x="210" y="322.0" width="430" height="20" rx="4" fill="#161b22"/>
<rect x="210" y="322.0" width="138.9" height="20" rx="4" fill="#58a6ff"/>
<text x="648" y="338.0" fill="#c9d1d9" font-size="12" font-weight="600">32%</text>
<text x="198" y="372.0" fill="#c9d1d9" font-size="13" text-anchor="end">codegemma:7b</text>
<rect x="210" y="356.0" width="430" height="20" rx="4" fill="#161b22"/>
<rect x="210" y="356.0" width="124.7" height="20" rx="4" fill="#58a6ff"/>
<text x="648" y="372.0" fill="#c9d1d9" font-size="12" font-weight="600">29%</text>
<text x="198" y="406.0" fill="#c9d1d9" font-size="13" text-anchor="end">opencoder:8b</text>
<rect x="210" y="390.0" width="430" height="20" rx="4" fill="#161b22"/>
<rect x="210" y="390.0" width="97.2" height="20" rx="4" fill="#58a6ff"/>
<text x="648" y="406.0" fill="#c9d1d9" font-size="12" font-weight="600">23%</text>
<text x="198" y="440.0" fill="#c9d1d9" font-size="13" text-anchor="end">deepcoder:14b</text>
<rect x="210" y="424.0" width="430" height="20" rx="4" fill="#161b22"/>
<rect x="210" y="424.0" width="97.2" height="20" rx="4" fill="#58a6ff"/>
<text x="648" y="440.0" fill="#c9d1d9" font-size="12" font-weight="600">23%</text>
<text x="198" y="474.0" fill="#c9d1d9" font-size="13" text-anchor="end">olmo2:13b</text>
<rect x="210" y="458.0" width="430" height="20" rx="4" fill="#161b22"/>
<rect x="210" y="458.0" width="27.9" height="20" rx="4" fill="#58a6ff"/>
<text x="648" y="474.0" fill="#c9d1d9" font-size="12" font-weight="600">6%</text>
<text x="198" y="508.0" fill="#c9d1d9" font-size="13" text-anchor="end">starcoder2:15b</text>
<rect x="210" y="492.0" width="430" height="20" rx="4" fill="#161b22"/>
<rect x="210" y="492.0" width="13.8" height="20" rx="4" fill="#58a6ff"/>
<text x="648" y="508.0" fill="#c9d1d9" font-size="12" font-weight="600">3%</text>
<text x="198" y="542.0" fill="#c9d1d9" font-size="13" text-anchor="end">qwen3.5:27b · gpt-oss:20b · yi-coder:9b · qwen3:32b</text>
<rect x="210" y="526.0" width="430" height="20" rx="4" fill="#161b22"/>
<rect x="210" y="526.0" width="1.0" height="20" rx="4" fill="#30363d"/>
<text x="648" y="542.0" fill="#8b949e" font-size="12" font-weight="600">0%</text>
<text x="24" y="594" fill="#8b949e" font-size="11">Overall = all passing cases / 31 · best-batch dedup per model · green ≥75%</text>
</svg>
